# xmcd
#
# Track frame offsets:
#	150
#	1555
#	20041
#	38670
#	55033
#	73843
#	89791
#	105999
#	124084
#	142163
#	158313
#	179282
#	197332
#	216195
#	231727
#	250308
#	268075
#
# Disc length: 3826 seconds
#
# Revision: 1
# Processed by: cddbd v1.4PL0 Copyright (c) Steve Scherf et al.
# Submitted via: dBpowerAMP V4.0
#
DISCID=eb0ef011
DTITLE=Marques Houston - MH
DYEAR=2003
DGENRE=R&B
TTITLE0=Intro
TTITLE1=Clubbin Feat. Joe Budden and Pied Piper
TTITLE2=Pop That Booty Feat. Jermaine Dupri
TTITLE3=That Girl
TTITLE4=Becuase Of You
TTITLE5=Walk Away
TTITLE6=I Can Be The One
TTITLE7=Grass Is Greener
TTITLE8=Cancel
TTITLE9=Good Luck
TTITLE10=Can I Call You
TTITLE11=Love's A Game
TTITLE12=Tempted
TTITLE13=Actin Up Feat. Lil Fizz Of B2K
TTITLE14=Alone
TTITLE15=(Bonus) - That Girl Feat. Pied Piper
TTITLE16=(Bonus) - Clubbin' (Remix) Feat. Joe Budden
EXTD=
EXTT0=
EXTT1=
EXTT2=
EXTT3=
EXTT4=
EXTT5=
EXTT6=
EXTT7=
EXTT8=
EXTT9=
EXTT10=
EXTT11=
EXTT12=
EXTT13=
EXTT14=
EXTT15=
EXTT16=
PLAYORDER=
